<svg xmlns="http://www.w3.org/2000/svg" viewBox="0 0 512 512" role="img" aria-labelledby="title desc">
  <title id="title">代码编辑器</title>
  <desc id="desc">代码编辑器 PWA 图标</desc>
  <defs>
    <linearGradient id="bg" x1="64" y1="64" x2="448" y2="448" gradientUnits="userSpaceOnUse">
      <stop stop-color="#0f172a"/>
      <stop offset="1" stop-color="#2563eb"/>
    </linearGradient>
    <filter id="shadow" x="80" y="80" width="352" height="352" color-interpolation-filters="sRGB" filterUnits="userSpaceOnUse">
      <feDropShadow dx="0" dy="18" stdDeviation="18" flood-color="#020617" flood-opacity="0.28"/>
    </filter>
  </defs>
  <rect width="512" height="512" rx="112" fill="url(#bg)"/>
  <g filter="url(#shadow)">
    <rect x="88" y="88" width="336" height="336" rx="64" fill="#f8fafc" opacity="0.96"/>
    <rect x="120" y="136" width="272" height="240" rx="36" fill="#0f172a"/>
    <path d="M120 172c0-19.88 16.12-36 36-36h200c19.88 0 36 16.12 36 36v28H120v-28Z" fill="#1e293b"/>
    <circle cx="160" cy="168" r="8" fill="#94a3b8"/>
    <circle cx="192" cy="168" r="8" fill="#94a3b8"/>
    <circle cx="224" cy="168" r="8" fill="#94a3b8"/>
    <path d="M224 240l-58 56 58 56" fill="none" stroke="#e2e8f0" stroke-width="22" stroke-linecap="round" stroke-linejoin="round"/>
    <path d="M288 240l58 56-58 56" fill="none" stroke="#e2e8f0" stroke-width="22" stroke-linecap="round" stroke-linejoin="round"/>
    <path d="M276 226l-40 140" fill="none" stroke="#60a5fa" stroke-width="20" stroke-linecap="round"/>
  </g>
</svg>
